<svg width="128" height="128" viewBox="0 0 128 128" fill="none" xmlns="http://www.w3.org/2000/svg">
  <!-- Background circle with gradient -->
  <circle cx="64" cy="64" r="60" fill="url(#gradient)" stroke="url(#borderGradient)" stroke-width="2"/>
  
  <!-- Form document -->
  <rect x="32" y="24" width="48" height="64" rx="4" fill="white" stroke="#E5E7EB" stroke-width="1.5"/>
  
  <!-- Form lines -->
  <rect x="36" y="32" width="32" height="2" rx="1" fill="#6B7280"/>
  <rect x="36" y="38" width="28" height="2" rx="1" fill="#6B7280"/>
  <rect x="36" y="44" width="30" height="2" rx="1" fill="#6B7280"/>
  <rect x="36" y="50" width="24" height="2" rx="1" fill="#6B7280"/>
  
  <!-- Checkbox -->
  <rect x="36" y="58" width="12" height="12" rx="2" fill="white" stroke="#10B981" stroke-width="2"/>
  <path d="M40 62L42 64L46 60" stroke="#10B981" stroke-width="2" stroke-linecap="round" stroke-linejoin="round"/>
  
  <!-- Radio button -->
  <circle cx="52" cy="64" r="6" fill="white" stroke="#3B82F6" stroke-width="2"/>
  <circle cx="52" cy="64" r="3" fill="#3B82F6"/>
  
  <!-- Magic wand/automation symbol -->
  <g transform="translate(70, 20)">
    <path d="M8 4L12 8L8 12L4 8L8 4Z" fill="#F59E0B"/>
    <path d="M12 8L20 0L24 4L16 12L12 8Z" fill="#F59E0B"/>
    <circle cx="8" cy="8" r="1" fill="white"/>
    <circle cx="18" cy="2" r="1" fill="white"/>
  </g>
  
  <!-- Sparkles for automation effect -->
  <g transform="translate(85, 35)">
    <circle cx="0" cy="0" r="1.5" fill="#F59E0B" opacity="0.8"/>
    <path d="M-2 0L2 0M0 -2L0 2" stroke="#F59E0B" stroke-width="1" opacity="0.6"/>
  </g>
  <g transform="translate(90, 50)">
    <circle cx="0" cy="0" r="1" fill="#3B82F6" opacity="0.7"/>
    <path d="M-1.5 0L1.5 0M0 -1.5L0 1.5" stroke="#3B82F6" stroke-width="0.8" opacity="0.5"/>
  </g>
  <g transform="translate(75, 65)">
    <circle cx="0" cy="0" r="1.2" fill="#10B981" opacity="0.6"/>
    <path d="M-1.8 0L1.8 0M0 -1.8L0 1.8" stroke="#10B981" stroke-width="0.9" opacity="0.4"/>
  </g>
  
  <!-- Arrow indicating progression -->
  <path d="M88 64L100 64M96 60L100 64L96 68" stroke="#6B7280" stroke-width="2" stroke-linecap="round" stroke-linejoin="round"/>
  
  <!-- Gradients -->
  <defs>
    <linearGradient id="gradient" x1="0%" y1="0%" x2="100%" y2="100%">
      <stop offset="0%" style="stop-color:#3B82F6;stop-opacity:1" />
      <stop offset="50%" style="stop-color:#1D4ED8;stop-opacity:1" />
      <stop offset="100%" style="stop-color:#1E40AF;stop-opacity:1" />
    </linearGradient>
    <linearGradient id="borderGradient" x1="0%" y1="0%" x2="100%" y2="100%">
      <stop offset="0%" style="stop-color:#60A5FA;stop-opacity:1" />
      <stop offset="100%" style="stop-color:#3B82F6;stop-opacity:1" />
    </linearGradient>
  </defs>
</svg>